<svg width="62" height="35" viewBox="0 0 62 35" fill="none" xmlns="http://www.w3.org/2000/svg">
<path fill-rule="evenodd" clip-rule="evenodd" d="M61.5083 25.9072C60.0461 28.8437 58.0197 31.093 55.4292 32.6553C52.8388 34.2175 49.8401 34.999 46.4331 34.9997C43.903 34.9997 41.5683 34.5129 39.4291 33.5392C37.2899 32.5656 35.3744 31.1265 33.6824 29.2219C32.2477 27.6447 31.1384 25.8007 30.4177 23.7952C30.3649 23.6521 30.3161 23.509 30.2663 23.3649C32.0623 23.4319 33.8684 23.4075 35.6715 23.2959C36.2042 24.4301 36.9179 25.4704 37.7846 26.3761C38.9216 27.5651 40.2843 28.5163 41.7933 29.1742C43.2506 29.825 44.8285 30.1635 46.425 30.1677C48.3561 30.1677 50.1013 29.8054 51.6503 29.0717C53.1792 28.3622 54.4997 27.2722 55.4851 25.9062L61.5083 25.9072Z" fill="url(#paint0_linear_167_1073)"/>
<path fill-rule="evenodd" clip-rule="evenodd" d="M14.133 29.7902H17.975C20.2354 29.7902 21.8982 29.3693 22.9634 28.5276C24.0286 27.686 24.5632 26.3859 24.5673 24.6274C24.5723 24.0126 24.504 23.3993 24.364 22.8006C26.0097 23.0602 27.6676 23.2356 29.3312 23.3263C29.3474 23.5689 29.3556 23.8155 29.3556 24.0682C29.3675 25.588 29.0691 27.0944 28.4784 28.4952C27.8858 29.8775 27.0798 31.0212 26.039 31.9296C25.0309 32.7913 23.8473 33.4239 22.5701 33.7838C21.2827 34.1552 19.4643 34.3396 17.1151 34.3369H9.34167V17.3242C10.8729 18.2885 12.4745 19.1366 14.133 19.8615V29.7902Z" fill="url(#paint1_linear_167_1073)"/>
<path fill-rule="evenodd" clip-rule="evenodd" d="M34.8126 17.9657C41.7485 17.03 48.0919 14.6896 53.5072 11.3344C47.8794 12.8344 41.7658 13.7935 35.3137 14.0979L34.8055 14.1192C34.9534 13.5785 35.1354 13.0477 35.3503 12.5299C35.9797 10.9901 36.9 9.58567 38.061 8.39321C39.1456 7.27441 40.4458 6.38642 41.8832 5.78275C43.3206 5.17908 44.8656 4.87222 46.425 4.88066C48.4252 4.88066 50.2039 5.25921 51.7854 6.00922C53.3759 6.78085 54.7461 7.93998 55.7697 9.37969H61.5083C60.1816 6.39454 58.2104 4.08362 55.5949 2.44694C52.9794 0.81025 49.9414 -0.00538601 46.4809 2.67628e-05C44.177 2.67628e-05 42.0294 0.413088 40.0379 1.23921C38.0002 2.0867 36.1476 3.32292 34.5839 4.87862C32.8561 6.60395 31.5398 8.51703 30.6464 10.625C30.1584 11.7703 29.8001 12.9665 29.5782 14.1913C28.4988 14.1751 27.4261 14.1412 26.3603 14.0898C26.4771 13.9244 26.5859 13.7549 26.6865 13.5824C27.2964 12.5167 27.6013 11.2857 27.6013 9.90439C27.6013 6.88812 26.6659 4.59615 24.795 3.02847C22.9242 1.4608 20.1863 0.674255 16.5815 0.668842H9.34171V11.5891C6.16683 10.7943 3.04648 9.7963 0 8.60126C7.60773 14.9576 18.0492 18.6558 29.3414 18.397L29.7479 18.3859L29.936 18.3798L30.3537 18.3635L30.5854 18.3524C30.7125 18.3463 30.8395 18.3402 30.9666 18.3321L31.1871 18.3199L31.5541 18.2955L31.8336 18.2763L32.0074 18.2631L32.0866 18.257L32.1659 18.2499L32.483 18.2235L32.5623 18.2164L32.6416 18.2093L32.7209 18.2022L33.1183 18.1636L33.1976 18.1555L33.2768 18.1474L33.3561 18.1392L33.7535 18.0956L33.8338 18.0865L33.9131 18.0773L33.9934 18.0682C34.2658 18.0357 34.5382 18.0022 34.8065 17.9667L34.8126 17.9657ZM21.0587 13.6707L20.949 13.6585L20.8392 13.6463L20.7294 13.6341L20.6674 13.628L20.6207 13.6219L20.5109 13.6098L20.2924 13.5844L20.1836 13.5712L20.0738 13.558L19.9651 13.5448L19.8563 13.5316L19.7476 13.5184L19.6388 13.5052L19.5301 13.492L19.4213 13.4778L19.3126 13.4636L19.2038 13.4504L19.0951 13.4352L18.9873 13.421L18.8786 13.4068L18.7708 13.3926L18.6621 13.3774L18.5543 13.3631L18.4456 13.3479L18.1224 13.3023L18.0136 13.287L17.9059 13.2718L17.7981 13.2566L17.7087 13.2434H17.6914L17.5837 13.2272L17.4759 13.2109L17.3682 13.1957L17.2615 13.1784L17.1537 13.1622L17.047 13.146L16.9403 13.1297L16.7258 13.0952L16.6191 13.079L16.5124 13.0617L16.2989 13.0262L16.1973 13.009L16.0906 12.9917L15.9839 12.9734L15.6647 12.9196L15.5631 12.9014L15.3506 12.8638L15.249 12.8456L15.1474 12.8273L15.0457 12.808L14.8343 12.7705L14.7327 12.7512L14.631 12.7319L14.3434 12.6781L14.3149 12.672L14.2133 12.6527V5.25718H16.8295C18.8298 5.25718 20.3239 5.62864 21.2956 6.37864C22.2672 7.12865 22.75 8.28055 22.75 9.84349C22.75 11.6026 22.2151 12.8655 21.1451 13.6321L21.0587 13.6707Z" fill="url(#paint2_linear_167_1073)"/>
<defs>
<linearGradient id="paint0_linear_167_1073" x1="17.0125" y1="32.1935" x2="59.398" y2="26.3918" gradientUnits="userSpaceOnUse">
<stop stop-color="#DED9D6"/>
<stop offset="0.04" stop-color="#CFCCC9"/>
<stop offset="0.11" stop-color="#A8A8A8"/>
<stop offset="0.21" stop-color="#6A7072"/>
<stop offset="0.26" stop-color="#465053"/>
<stop offset="0.37" stop-color="#878D8F"/>
<stop offset="0.46" stop-color="#B7BABB"/>
<stop offset="0.53" stop-color="#D5D6D6"/>
<stop offset="0.57" stop-color="#E0E0E0"/>
<stop offset="0.63" stop-color="#D6D7D8"/>
<stop offset="0.73" stop-color="#BCBFC2"/>
<stop offset="0.86" stop-color="#92989E"/>
<stop offset="0.88" stop-color="#8B9298"/>
<stop offset="1" stop-color="#A7A9AC"/>
</linearGradient>
<linearGradient id="paint1_linear_167_1073" x1="0.851029" y1="30.2578" x2="28.4124" y2="28.5952" gradientUnits="userSpaceOnUse">
<stop stop-color="#DED9D6"/>
<stop offset="0.04" stop-color="#CFCCC9"/>
<stop offset="0.11" stop-color="#A8A8A8"/>
<stop offset="0.21" stop-color="#6A7072"/>
<stop offset="0.26" stop-color="#465053"/>
<stop offset="0.37" stop-color="#878D8F"/>
<stop offset="0.46" stop-color="#B7BABB"/>
<stop offset="0.53" stop-color="#D5D6D6"/>
<stop offset="0.57" stop-color="#E0E0E0"/>
<stop offset="0.63" stop-color="#D6D7D8"/>
<stop offset="0.73" stop-color="#BCBFC2"/>
<stop offset="0.86" stop-color="#92989E"/>
<stop offset="0.88" stop-color="#8B9298"/>
<stop offset="1" stop-color="#A7A9AC"/>
</linearGradient>
<linearGradient id="paint2_linear_167_1073" x1="54.5506" y1="2.87108" x2="2.39257" y2="10.0488" gradientUnits="userSpaceOnUse">
<stop stop-color="#6BB8FF"/>
<stop offset="0.482367" stop-color="#6637ED"/>
<stop offset="1" stop-color="#8900D9"/>
</linearGradient>
</defs>
</svg>
