<svg width="43" height="43" viewBox="0 0 43 43" fill="none" xmlns="http://www.w3.org/2000/svg">
<circle cx="21.5" cy="21.5" r="21.5" fill="#F1E0FC"/>
<g clip-path="url(#clip0_71_964)">
<path d="M15.5755 18.6692H15.7857C16.5947 18.6692 17.2567 19.3312 17.2567 20.1402V27.4954C17.2567 28.3045 16.5947 28.9664 15.7857 28.9664H15.5755C14.7665 28.9664 14.1045 28.3045 14.1045 27.4954V20.1402C14.1045 19.3312 14.7665 18.6692 15.5755 18.6692ZM21.4597 14.2561C22.2687 14.2561 22.9307 14.9181 22.9307 15.7271V27.4954C22.9307 28.3045 22.2687 28.9664 21.4597 28.9664C20.6506 28.9664 19.9886 28.3045 19.9886 27.4954V15.7271C19.9886 14.9181 20.6506 14.2561 21.4597 14.2561ZM27.3438 22.662C28.1529 22.662 28.8148 23.324 28.8148 24.133V27.4954C28.8148 28.3045 28.1529 28.9664 27.3438 28.9664C26.5347 28.9664 25.8728 28.3045 25.8728 27.4954V24.133C25.8728 23.324 26.5347 22.662 27.3438 22.662Z" fill="#9921E5"/>
</g>
<defs>
<clipPath id="clip0_71_964">
<rect width="25.2177" height="25.2177" fill="white" transform="translate(8.85059 9.00232)"/>
</clipPath>
</defs>
</svg>
