<svg width="61" height="75" viewBox="0 0 61 75" fill="none" xmlns="http://www.w3.org/2000/svg">
<g clip-path="url(#clip0_142_1668)">
<path d="M4.76562 31.875V30H28.5938V31.875H4.76562ZM40.9844 16.875V15H4.76562V16.875H40.9844ZM29.2705 39.375C29.5566 40.6533 29.9454 41.9072 30.4333 43.125H2.85938C2.10172 43.1228 1.37574 42.8257 0.839991 42.2988C0.304244 41.7718 0.0022628 41.0577 0 40.3125L0 36.5625C0.0022628 35.8173 0.304244 35.1032 0.839991 34.5762C1.37574 34.0493 2.10172 33.7522 2.85938 33.75H28.6033C28.6133 35.0056 28.7153 36.2588 28.9083 37.5H19.0625C18.8097 37.5 18.5673 37.5988 18.3885 37.7746C18.2098 37.9504 18.1094 38.1889 18.1094 38.4375C18.1094 38.6861 18.2098 38.9246 18.3885 39.1004C18.5673 39.2762 18.8097 39.375 19.0625 39.375H29.2705ZM4.76562 38.4375C4.76562 38.2521 4.70972 38.0708 4.60499 37.9167C4.50026 37.7625 4.35141 37.6423 4.17725 37.5714C4.00308 37.5004 3.81144 37.4818 3.62655 37.518C3.44167 37.5542 3.27184 37.6435 3.13854 37.7746C3.00524 37.9057 2.91447 38.0727 2.87769 38.2546C2.84091 38.4365 2.85979 38.625 2.93193 38.7963C3.00407 38.9676 3.12623 39.114 3.28297 39.217C3.43971 39.32 3.62399 39.375 3.8125 39.375C4.06528 39.375 4.30772 39.2762 4.48646 39.1004C4.66521 38.9246 4.76562 38.6861 4.76562 38.4375ZM7.625 38.4375C7.625 38.2521 7.5691 38.0708 7.46437 37.9167C7.35964 37.7625 7.21078 37.6423 7.03662 37.5714C6.86246 37.5004 6.67082 37.4818 6.48593 37.518C6.30104 37.5542 6.13121 37.6435 5.99791 37.7746C5.86462 37.9057 5.77384 38.0727 5.73706 38.2546C5.70029 38.4365 5.71916 38.625 5.7913 38.7963C5.86344 38.9676 5.98561 39.114 6.14235 39.217C6.29909 39.32 6.48336 39.375 6.67188 39.375C6.92466 39.375 7.16709 39.2762 7.34584 39.1004C7.52458 38.9246 7.625 38.6861 7.625 38.4375ZM10.4844 38.4375C10.4844 38.2521 10.4285 38.0708 10.3237 37.9167C10.219 37.7625 10.0702 37.6423 9.896 37.5714C9.72183 37.5004 9.53019 37.4818 9.3453 37.518C9.16042 37.5542 8.99059 37.6435 8.85729 37.7746C8.72399 37.9057 8.63322 38.0727 8.59644 38.2546C8.55966 38.4365 8.57854 38.625 8.65068 38.7963C8.72282 38.9676 8.84498 39.114 9.00172 39.217C9.15846 39.32 9.34274 39.375 9.53125 39.375C9.78403 39.375 10.0265 39.2762 10.2052 39.1004C10.384 38.9246 10.4844 38.6861 10.4844 38.4375ZM0 25.3125V21.5625C0.0022628 20.8173 0.304244 20.1032 0.839991 19.5762C1.37574 19.0493 2.10172 18.7522 2.85938 18.75H42.8906C43.4806 18.7516 44.0555 18.9327 44.5367 19.2684C45.0179 19.6041 45.3818 20.0779 45.5784 20.625H37.1719C36.5819 20.6266 36.007 20.8077 35.5258 21.1434C35.0446 21.4791 34.6807 21.9529 34.4841 22.5H19.0625C18.8097 22.5 18.5673 22.5988 18.3885 22.7746C18.2098 22.9504 18.1094 23.1889 18.1094 23.4375C18.1094 23.6861 18.2098 23.9246 18.3885 24.1004C18.5673 24.2762 18.8097 24.375 19.0625 24.375H34.1409C33.9443 24.9221 33.5804 25.3959 33.0992 25.7316C32.618 26.0673 32.0431 26.2484 31.4531 26.25C30.8632 26.2516 30.2882 26.4327 29.807 26.7684C29.3258 27.1041 28.962 27.5779 28.7653 28.125H2.85938C2.10172 28.1228 1.37574 27.8257 0.839991 27.2988C0.304244 26.7718 0.0022628 26.0577 0 25.3125H0ZM8.57812 23.4375C8.57812 23.6229 8.63402 23.8042 8.73876 23.9583C8.84349 24.1125 8.99234 24.2327 9.1665 24.3036C9.34067 24.3746 9.53231 24.3932 9.7172 24.357C9.90208 24.3208 10.0719 24.2315 10.2052 24.1004C10.3385 23.9693 10.4293 23.8023 10.4661 23.6204C10.5028 23.4385 10.484 23.25 10.4118 23.0787C10.3397 22.9074 10.2175 22.761 10.0608 22.658C9.90404 22.555 9.71976 22.5 9.53125 22.5C9.27847 22.5 9.03603 22.5988 8.85729 22.7746C8.67854 22.9504 8.57812 23.1889 8.57812 23.4375ZM5.71875 23.4375C5.71875 23.6229 5.77465 23.8042 5.87938 23.9583C5.98411 24.1125 6.13297 24.2327 6.30713 24.3036C6.48129 24.3746 6.67293 24.3932 6.85782 24.357C7.04271 24.3208 7.21254 24.2315 7.34584 24.1004C7.47913 23.9693 7.56991 23.8023 7.60669 23.6204C7.64346 23.4385 7.62459 23.25 7.55245 23.0787C7.48031 22.9074 7.35814 22.761 7.2014 22.658C7.04466 22.555 6.86039 22.5 6.67188 22.5C6.41909 22.5 6.17666 22.5988 5.99791 22.7746C5.81917 22.9504 5.71875 23.1889 5.71875 23.4375ZM2.85938 23.4375C2.85938 23.6229 2.91527 23.8042 3.02001 23.9583C3.12474 24.1125 3.27359 24.2327 3.44775 24.3036C3.62192 24.3746 3.81356 24.3932 3.99845 24.357C4.18333 24.3208 4.35316 24.2315 4.48646 24.1004C4.61976 23.9693 4.71053 23.8023 4.74731 23.6204C4.78409 23.4385 4.76521 23.25 4.69307 23.0787C4.62093 22.9074 4.49877 22.761 4.34203 22.658C4.18529 22.555 4.00101 22.5 3.8125 22.5C3.55972 22.5 3.31728 22.5988 3.13854 22.7746C2.95979 22.9504 2.85938 23.1889 2.85938 23.4375ZM0 10.3125V6.5625C0.0022628 5.81726 0.304244 5.10319 0.839991 4.57622C1.37574 4.04926 2.10172 3.75223 2.85938 3.75H42.8906C43.6483 3.75223 44.3743 4.04926 44.91 4.57622C45.4458 5.10319 45.7477 5.81726 45.75 6.5625V10.3125C45.7477 11.0577 45.4458 11.7718 44.91 12.2988C44.3743 12.8257 43.6483 13.1228 42.8906 13.125H2.85938C2.10172 13.1228 1.37574 12.8257 0.839991 12.2988C0.304244 11.7718 0.0022628 11.0577 0 10.3125H0ZM18.1094 8.4375C18.1094 8.68614 18.2098 8.9246 18.3885 9.10041C18.5673 9.27623 18.8097 9.375 19.0625 9.375H41.9375C42.1903 9.375 42.4327 9.27623 42.6115 9.10041C42.7902 8.9246 42.8906 8.68614 42.8906 8.4375C42.8906 8.18886 42.7902 7.9504 42.6115 7.77459C42.4327 7.59877 42.1903 7.5 41.9375 7.5H19.0625C18.8097 7.5 18.5673 7.59877 18.3885 7.77459C18.2098 7.9504 18.1094 8.18886 18.1094 8.4375ZM8.57812 8.4375C8.57812 8.62292 8.63402 8.80418 8.73876 8.95835C8.84349 9.11252 8.99234 9.23268 9.1665 9.30364C9.34067 9.37459 9.53231 9.39316 9.7172 9.35699C9.90208 9.32081 10.0719 9.23152 10.2052 9.10041C10.3385 8.9693 10.4293 8.80225 10.4661 8.6204C10.5028 8.43854 10.484 8.25004 10.4118 8.07873C10.3397 7.90743 10.2175 7.76101 10.0608 7.658C9.90404 7.55498 9.71976 7.5 9.53125 7.5C9.27847 7.5 9.03603 7.59877 8.85729 7.77459C8.67854 7.9504 8.57812 8.18886 8.57812 8.4375ZM5.71875 8.4375C5.71875 8.62292 5.77465 8.80418 5.87938 8.95835C5.98411 9.11252 6.13297 9.23268 6.30713 9.30364C6.48129 9.37459 6.67293 9.39316 6.85782 9.35699C7.04271 9.32081 7.21254 9.23152 7.34584 9.10041C7.47913 8.9693 7.56991 8.80225 7.60669 8.6204C7.64346 8.43854 7.62459 8.25004 7.55245 8.07873C7.48031 7.90743 7.35814 7.76101 7.2014 7.658C7.04466 7.55498 6.86039 7.5 6.67188 7.5C6.41909 7.5 6.17666 7.59877 5.99791 7.77459C5.81917 7.9504 5.71875 8.18886 5.71875 8.4375ZM2.85938 8.4375C2.85938 8.62292 2.91527 8.80418 3.02001 8.95835C3.12474 9.11252 3.27359 9.23268 3.44775 9.30364C3.62192 9.37459 3.81356 9.39316 3.99845 9.35699C4.18333 9.32081 4.35316 9.23152 4.48646 9.10041C4.61976 8.9693 4.71053 8.80225 4.74731 8.6204C4.78409 8.43854 4.76521 8.25004 4.69307 8.07873C4.62093 7.90743 4.49877 7.76101 4.34203 7.658C4.18529 7.55498 4.00101 7.5 3.8125 7.5C3.55972 7.5 3.31728 7.59877 3.13854 7.77459C2.95979 7.9504 2.85938 8.18886 2.85938 8.4375ZM36.2188 32.625V33.4856C36.2152 36.6317 36.9951 39.7307 38.4905 42.5118C39.9859 45.2928 42.1511 47.6712 44.7969 49.4391V28.125H40.7938C39.7899 30.0624 38.1884 31.6376 36.2188 32.625ZM50.7062 28.125H46.7031V49.4362C49.3484 47.6679 51.5132 45.2894 53.0085 42.5084C54.5038 39.7275 55.2841 36.6287 55.2812 33.4828V32.625C53.3116 31.6376 51.7101 30.0624 50.7062 28.125ZM61 29.0625V33.4828C60.997 38.1971 59.6355 42.814 57.0733 46.7982C54.5112 50.7824 50.8533 53.9706 46.5239 55.9931L46.1475 56.1647C46.0228 56.221 45.8872 56.2501 45.75 56.2501C45.6128 56.2501 45.4772 56.221 45.3525 56.1647L44.9789 55.9941C40.6489 53.9719 36.9903 50.7837 34.4276 46.7993C31.8649 42.8149 30.5031 38.1976 30.5 33.4828V29.0625C30.5 28.8139 30.6004 28.5754 30.7792 28.3996C30.9579 28.2238 31.2003 28.125 31.4531 28.125C32.7166 28.1235 33.9279 27.6292 34.8213 26.7504C35.7147 25.8717 36.2172 24.6802 36.2188 23.4375C36.2188 23.1889 36.3192 22.9504 36.4979 22.7746C36.6767 22.5988 36.9191 22.5 37.1719 22.5H54.3281C54.5809 22.5 54.8233 22.5988 55.0021 22.7746C55.1808 22.9504 55.2812 23.1889 55.2812 23.4375C55.2828 24.6802 55.7853 25.8717 56.6787 26.7504C57.5721 27.6292 58.7834 28.1235 60.0469 28.125C60.2997 28.125 60.5421 28.2238 60.7208 28.3996C60.8996 28.5754 61 28.8139 61 29.0625ZM57.1875 32.0297C57.1874 31.8474 57.1333 31.669 57.0317 31.5165C56.9301 31.364 56.7855 31.2439 56.6156 31.1709C54.6321 30.3197 53.049 28.7626 52.1836 26.8116C52.1094 26.6445 51.9874 26.5022 51.8323 26.4023C51.6772 26.3024 51.4959 26.2492 51.3105 26.2491H40.1885C40.0031 26.2492 39.8218 26.3024 39.6668 26.4023C39.5117 26.5022 39.3896 26.6445 39.3155 26.8116C38.4501 28.7626 36.8669 30.3197 34.8834 31.1709C34.7135 31.2439 34.5689 31.364 34.4674 31.5165C34.3658 31.669 34.3116 31.8474 34.3115 32.0297V33.4828C34.306 37.241 35.32 40.9326 37.2489 44.1767C39.1779 47.4208 41.952 50.0999 45.2849 51.9375C45.4296 52.0081 45.5877 52.0486 45.749 52.0566C45.9103 52.0479 46.0682 52.0074 46.2132 51.9375C49.5458 50.0995 52.3197 47.4203 54.2488 44.1763C56.1778 40.9323 57.1923 37.241 57.1875 33.4828V32.0297Z" fill="white"/>
</g>
<defs>
<clipPath id="clip0_142_1668">
<rect width="61" height="75" fill="white"/>
</clipPath>
</defs>
</svg>
